<svg width="250" height="270" viewBox="0 0 250 270" fill="none" xmlns="http://www.w3.org/2000/svg">
    <mask id="mask0_31_115" style="mask-type:luminance" maskUnits="userSpaceOnUse" x="28" y="16" width="178"
          height="254">
        <path d="M28.3177 16.6094H205.318V269.307H28.3177V16.6094Z" fill="white"/>
    </mask>
    <g mask="url(#mask0_31_115)">
        <path
            d="M190.979 129.193L190.974 129.172C185.443 117.76 180.229 106.984 180.229 94.1667C180.229 70.4115 173.87 50.5365 161.839 36.7083C153.458 27.0833 142.391 20.599 129.818 17.9688L125.047 17.1667L124.964 17.1511C124.859 17.1406 124.76 17.1302 124.661 17.125L124.474 17.1042C123.536 16.9896 122.557 16.8958 121.568 16.8229C121.453 16.8125 121.344 16.8021 121.234 16.7969C121.021 16.7761 120.812 16.7604 120.609 16.75C119.172 16.6667 117.969 16.6302 116.823 16.6302C115.677 16.6302 114.469 16.6667 113.036 16.75C112.823 16.7604 112.609 16.7813 112.401 16.7969L112.057 16.8229C110.995 16.9011 110.047 16.9948 109.161 17.099L108.974 17.1146C108.875 17.125 108.771 17.1354 108.672 17.1458L103.88 17.9479L103.807 17.9583C91.2344 20.599 80.1719 27.0833 71.7969 36.7031C59.7656 50.5365 53.4062 70.4063 53.4062 94.1615C53.4062 106.969 48.1875 117.755 42.6667 129.172C35.9375 143.063 28.3177 158.802 28.3177 181.245C28.3177 229.958 68.0156 269.599 116.818 269.599C165.625 269.599 205.323 229.964 205.323 181.25C205.323 158.823 197.703 143.083 190.979 129.193Z"
            fill="#3D573A"/>
    </g>
    <mask id="mask1_31_115" style="mask-type:luminance" maskUnits="userSpaceOnUse" x="49" y="0" width="178"
          height="254">
        <path d="M49.7604 0.0260315H226.76V253.026H49.7604V0.0260315Z" fill="white"/>
    </mask>
    <g mask="url(#mask1_31_115)">
        <path
            d="M212.422 112.615L212.411 112.594C206.891 101.193 201.667 90.4167 201.667 77.599C201.667 53.8542 195.307 33.9948 183.271 20.1719C174.901 10.5469 163.828 4.06771 151.26 1.43229L146.484 0.630208L146.401 0.619792C146.302 0.604167 146.203 0.598959 146.099 0.588541L145.917 0.567708C144.979 0.458333 144 0.364584 143.005 0.291667C142.896 0.286459 142.786 0.276041 142.677 0.265625C142.464 0.25 142.25 0.229167 142.052 0.218749C140.62 0.140625 139.411 0.09375 138.26 0.09375C137.109 0.09375 135.906 0.135416 134.479 0.218749C134.266 0.234375 134.052 0.25 133.839 0.265625L133.5 0.291667C132.437 0.375 131.495 0.463541 130.604 0.572917L130.422 0.588541C130.318 0.598959 130.219 0.609375 130.115 0.619792L125.328 1.41667L125.255 1.43229C112.687 4.06771 101.615 10.5469 93.2448 20.1667C81.2083 33.9896 74.8489 53.8542 74.8489 77.599C74.8489 90.4062 69.6302 101.177 64.1042 112.594C57.3802 126.474 49.7604 142.208 49.7604 164.641C49.7604 213.339 89.4583 252.953 138.255 252.953C187.057 252.953 226.76 213.339 226.76 164.646C226.76 142.234 219.141 126.495 212.422 112.615Z"
            fill="#3D863A"/>
    </g>
    <mask id="mask2_31_115" style="mask-type:luminance" maskUnits="userSpaceOnUse" x="61" y="8" width="160"
          height="238">
        <path d="M61.6875 8.45834H220.688V245.458H61.6875V8.45834Z" fill="white"/>
    </mask>
    <g mask="url(#mask2_31_115)">
        <path
            d="M141.188 245.458C97.3594 245.458 61.7031 209.797 61.7031 165.964C61.7031 145.5 68.5937 131.234 75.2656 117.432C81.1927 105.167 87.3229 92.4792 87.3229 76.8906C87.3229 55.2448 92.8906 37.3906 103.438 25.25C110.375 17.2552 119.547 11.8542 129.969 9.62501L134.281 8.90105C134.411 8.89064 134.547 8.88022 134.672 8.85938C135.406 8.77605 136.219 8.69272 137.146 8.62501C137.276 8.61459 137.401 8.60418 137.531 8.59376H137.557C137.682 8.58334 137.792 8.57293 137.906 8.56772H137.948C139.193 8.48959 140.224 8.45834 141.188 8.45834C142.156 8.45834 143.188 8.48959 144.432 8.56251H144.469C144.578 8.56251 144.693 8.57814 144.802 8.58855H144.833L145.25 8.6198C146.083 8.6823 146.917 8.75522 147.708 8.85938C147.839 8.87501 147.964 8.89064 148.099 8.90105L152.422 9.63022C162.839 11.8646 171.995 17.2656 178.932 25.2552C189.469 37.4011 195.047 55.2552 195.047 76.8958C195.047 92.5 201.177 105.177 207.104 117.438L207.12 117.469C213.781 131.266 220.667 145.526 220.667 165.969C220.667 209.807 185.01 245.458 141.188 245.458Z"
            fill="#86CD60"/>
    </g>
    <mask id="mask3_31_115" style="mask-type:luminance" maskUnits="userSpaceOnUse" x="72" y="16" width="149"
          height="222">
        <path d="M72.6094 16.6094H220.609V237.609H72.6094V16.6094Z" fill="white"/>
    </mask>
    <g mask="url(#mask3_31_115)">
        <path
            d="M146.609 237.609C105.812 237.609 72.6198 204.359 72.6198 163.479C72.6198 144.401 79.0364 131.099 85.2448 118.229C90.7604 106.786 96.4687 94.9635 96.4687 80.4219C96.4687 60.2396 101.651 43.5885 111.469 32.2708C117.927 24.8177 126.464 19.7813 136.167 17.6979L140.182 17.026C140.302 17.0156 140.427 17 140.547 16.9896C141.229 16.9063 141.984 16.8333 142.849 16.7656C142.969 16.7604 143.083 16.75 143.203 16.7396H143.229C143.344 16.7292 143.448 16.7187 143.552 16.7135H143.594C144.75 16.6406 145.708 16.6094 146.609 16.6094C147.51 16.6094 148.469 16.6406 149.63 16.7083H149.667C149.766 16.7083 149.87 16.724 149.974 16.7344H150.005L150.391 16.7656C151.167 16.8229 151.943 16.8906 152.682 16.9844C152.797 17 152.917 17.0104 153.047 17.026L157.068 17.7031C166.76 19.7917 175.286 24.8229 181.745 32.2708C191.552 43.599 196.745 60.2448 196.745 80.4323C196.745 94.9792 202.453 106.802 207.969 118.234L207.984 118.266C214.188 131.125 220.594 144.427 220.594 163.49C220.594 204.365 187.406 237.609 146.609 237.609Z"
            fill="#E5FF7F"/>
    </g>
    <mask id="mask4_31_115" style="mask-type:luminance" maskUnits="userSpaceOnUse" x="103" y="117" width="85"
          height="85">
        <path d="M103.495 117.146H187.495V201.146H103.495V117.146Z" fill="white"/>
    </mask>
    <g mask="url(#mask4_31_115)">
        <mask id="mask5_31_115" style="mask-type:luminance" maskUnits="userSpaceOnUse" x="103" y="117" width="85"
              height="85">
            <path
                d="M187.495 159.146C187.495 160.521 187.427 161.891 187.297 163.26C187.161 164.63 186.958 165.99 186.687 167.339C186.422 168.688 186.089 170.021 185.687 171.339C185.286 172.651 184.828 173.948 184.302 175.219C183.771 176.49 183.187 177.729 182.536 178.943C181.891 180.156 181.182 181.333 180.417 182.479C179.656 183.62 178.833 184.724 177.964 185.786C177.089 186.854 176.167 187.87 175.198 188.844C174.224 189.818 173.203 190.74 172.141 191.609C171.078 192.484 169.974 193.302 168.833 194.068C167.687 194.828 166.51 195.536 165.297 196.182C164.083 196.833 162.839 197.422 161.568 197.948C160.297 198.474 159.005 198.938 157.687 199.333C156.375 199.734 155.042 200.068 153.693 200.339C152.344 200.604 150.984 200.807 149.615 200.943C148.245 201.078 146.87 201.146 145.495 201.146C144.12 201.146 142.75 201.078 141.38 200.943C140.01 200.807 138.651 200.604 137.302 200.339C135.953 200.068 134.62 199.734 133.307 199.333C131.99 198.938 130.693 198.474 129.422 197.948C128.151 197.422 126.911 196.833 125.698 196.182C124.484 195.536 123.307 194.828 122.161 194.068C121.021 193.302 119.917 192.484 118.854 191.609C117.786 190.74 116.771 189.818 115.797 188.844C114.828 187.87 113.901 186.854 113.031 185.786C112.156 184.724 111.339 183.62 110.573 182.479C109.812 181.333 109.104 180.156 108.458 178.943C107.807 177.729 107.219 176.49 106.693 175.219C106.167 173.948 105.703 172.651 105.307 171.339C104.906 170.021 104.573 168.688 104.302 167.339C104.036 165.99 103.833 164.63 103.698 163.26C103.562 161.891 103.495 160.521 103.495 159.146C103.495 157.771 103.562 156.396 103.698 155.026C103.833 153.656 104.036 152.302 104.302 150.948C104.573 149.599 104.906 148.271 105.307 146.953C105.703 145.635 106.167 144.344 106.693 143.073C107.219 141.802 107.807 140.557 108.458 139.344C109.104 138.13 109.812 136.953 110.573 135.813C111.339 134.667 112.156 133.563 113.031 132.5C113.901 131.438 114.828 130.417 115.797 129.448C116.771 128.474 117.786 127.552 118.854 126.677C119.917 125.807 121.021 124.984 122.161 124.224C123.307 123.458 124.484 122.75 125.698 122.104C126.911 121.453 128.151 120.87 129.422 120.344C130.693 119.813 131.99 119.354 133.307 118.953C134.62 118.552 135.953 118.219 137.302 117.953C138.651 117.682 140.01 117.479 141.38 117.349C142.75 117.214 144.12 117.146 145.495 117.146C146.87 117.146 148.245 117.214 149.615 117.349C150.984 117.479 152.344 117.682 153.693 117.953C155.042 118.219 156.375 118.552 157.687 118.953C159.005 119.354 160.297 119.813 161.568 120.344C162.839 120.87 164.083 121.453 165.297 122.104C166.51 122.75 167.687 123.458 168.833 124.224C169.974 124.984 171.078 125.807 172.141 126.677C173.203 127.552 174.224 128.474 175.198 129.448C176.167 130.417 177.089 131.438 177.964 132.5C178.833 133.563 179.656 134.667 180.417 135.813C181.182 136.953 181.891 138.13 182.536 139.344C183.187 140.557 183.771 141.802 184.302 143.073C184.828 144.344 185.286 145.635 185.687 146.953C186.089 148.271 186.422 149.599 186.687 150.948C186.958 152.302 187.161 153.656 187.297 155.026C187.427 156.396 187.495 157.771 187.495 159.146Z"
                fill="white"/>
        </mask>
        <g mask="url(#mask5_31_115)">
            <path d="M103.495 117.146V201.146H187.495V117.146H103.495Z" fill="url(#paint0_radial_31_115)"/>
        </g>
    </g>
    <path
        d="M132.812 173.182C131.984 173.182 131.432 172.906 130.88 172.359L119.839 161.37C118.734 160.271 118.734 158.625 119.839 157.526L130.88 146.542C131.984 145.443 133.641 145.443 134.75 146.542C135.854 147.641 135.854 149.286 134.75 150.385L125.635 159.448L134.75 168.51C135.854 169.609 135.854 171.26 134.75 172.359C134.193 172.906 133.641 173.182 132.812 173.182Z"
        fill="#E6FE7F"/>
    <mask id="mask6_31_115" style="mask-type:luminance" maskUnits="userSpaceOnUse" x="157" y="145" width="18"
          height="29">
        <path d="M157.333 145.333H174.62V173.333H157.333V145.333Z" fill="white"/>
    </mask>
    <g mask="url(#mask6_31_115)">
        <path
            d="M160.422 173.182C159.594 173.182 159.042 172.906 158.49 172.359C157.385 171.26 157.385 169.609 158.49 168.51L167.599 159.448L158.49 150.385C157.385 149.286 157.385 147.641 158.49 146.542C159.594 145.443 161.25 145.443 162.354 146.542L173.396 157.526C174.505 158.625 174.505 160.271 173.396 161.37L162.354 172.359C161.802 172.906 161.25 173.182 160.422 173.182Z"
            fill="#E6FE7F"/>
    </g>
    <mask id="mask7_31_115" style="mask-type:luminance" maskUnits="userSpaceOnUse" x="137" y="140" width="19"
          height="39">
        <path d="M137.333 140H156V178.672H137.333V140Z" fill="white"/>
    </mask>
    <g mask="url(#mask7_31_115)">
        <path
            d="M141.099 178.672C140.823 178.672 140.547 178.672 140.271 178.401C138.891 177.849 138.062 176.474 138.615 174.828L149.656 141.87C150.208 140.5 151.589 139.672 153.245 140.224C154.625 140.771 155.453 142.146 154.901 143.792L143.859 176.75C143.307 177.849 142.203 178.672 141.099 178.672Z"
            fill="#E6FE7F"/>
    </g>
    <defs>
        <radialGradient id="paint0_radial_31_115" cx="0" cy="0" r="1" gradientUnits="userSpaceOnUse"
                        gradientTransform="translate(146.812 156.073) scale(43.8159)">
            <stop stop-color="#C86A12"/>
            <stop offset="0.25" stop-color="#C86A12"/>
            <stop offset="0.34375" stop-color="#C86A12"/>
            <stop offset="0.351562" stop-color="#C76A12"/>
            <stop offset="0.355469" stop-color="#C76912"/>
            <stop offset="0.359375" stop-color="#C66912"/>
            <stop offset="0.363281" stop-color="#C66912"/>
            <stop offset="0.367188" stop-color="#C56811"/>
            <stop offset="0.371094" stop-color="#C56811"/>
            <stop offset="0.375" stop-color="#C46711"/>
            <stop offset="0.378906" stop-color="#C46711"/>
            <stop offset="0.382812" stop-color="#C36711"/>
            <stop offset="0.386719" stop-color="#C36611"/>
            <stop offset="0.390625" stop-color="#C26611"/>
            <stop offset="0.394531" stop-color="#C26611"/>
            <stop offset="0.398438" stop-color="#C16510"/>
            <stop offset="0.402344" stop-color="#C06510"/>
            <stop offset="0.40625" stop-color="#C06410"/>
            <stop offset="0.410156" stop-color="#BF6410"/>
            <stop offset="0.414062" stop-color="#BF6410"/>
            <stop offset="0.417969" stop-color="#BE6310"/>
            <stop offset="0.421875" stop-color="#BE6310"/>
            <stop offset="0.425781" stop-color="#BD6310"/>
            <stop offset="0.429688" stop-color="#BD620F"/>
            <stop offset="0.433594" stop-color="#BC620F"/>
            <stop offset="0.4375" stop-color="#BC610F"/>
            <stop offset="0.441406" stop-color="#BB610F"/>
            <stop offset="0.445312" stop-color="#BA610F"/>
            <stop offset="0.449219" stop-color="#BA600F"/>
            <stop offset="0.453125" stop-color="#B9600F"/>
            <stop offset="0.457031" stop-color="#B95F0E"/>
            <stop offset="0.460938" stop-color="#B85F0E"/>
            <stop offset="0.464844" stop-color="#B85F0E"/>
            <stop offset="0.46875" stop-color="#B75E0E"/>
            <stop offset="0.472656" stop-color="#B75E0E"/>
            <stop offset="0.476562" stop-color="#B65E0E"/>
            <stop offset="0.480469" stop-color="#B65D0E"/>
            <stop offset="0.484375" stop-color="#B55D0E"/>
            <stop offset="0.488281" stop-color="#B55C0D"/>
            <stop offset="0.492188" stop-color="#B45C0D"/>
            <stop offset="0.496094" stop-color="#B35C0D"/>
            <stop offset="0.5" stop-color="#B35B0D"/>
            <stop offset="0.503906" stop-color="#B25B0D"/>
            <stop offset="0.507812" stop-color="#B25B0D"/>
            <stop offset="0.511719" stop-color="#B15A0D"/>
            <stop offset="0.515625" stop-color="#B15A0D"/>
            <stop offset="0.519531" stop-color="#B0590C"/>
            <stop offset="0.523438" stop-color="#B0590C"/>
            <stop offset="0.527344" stop-color="#AF590C"/>
            <stop offset="0.53125" stop-color="#AF580C"/>
            <stop offset="0.535156" stop-color="#AE580C"/>
            <stop offset="0.539062" stop-color="#AE570C"/>
            <stop offset="0.542969" stop-color="#AD570C"/>
            <stop offset="0.546875" stop-color="#AC570B"/>
            <stop offset="0.550781" stop-color="#AC560B"/>
            <stop offset="0.554688" stop-color="#AB560B"/>
            <stop offset="0.558594" stop-color="#AB560B"/>
            <stop offset="0.5625" stop-color="#AA550B"/>
            <stop offset="0.566406" stop-color="#AA550B"/>
            <stop offset="0.570312" stop-color="#A9540B"/>
            <stop offset="0.574219" stop-color="#A9540B"/>
            <stop offset="0.578125" stop-color="#A8540A"/>
            <stop offset="0.582031" stop-color="#A8530A"/>
            <stop offset="0.585938" stop-color="#A7530A"/>
            <stop offset="0.589844" stop-color="#A7530A"/>
            <stop offset="0.59375" stop-color="#A6520A"/>
            <stop offset="0.597656" stop-color="#A5520A"/>
            <stop offset="0.601562" stop-color="#A5510A"/>
            <stop offset="0.605469" stop-color="#A4510A"/>
            <stop offset="0.609375" stop-color="#A45109"/>
            <stop offset="0.613281" stop-color="#A35009"/>
            <stop offset="0.617188" stop-color="#A35009"/>
            <stop offset="0.621094" stop-color="#A24F09"/>
            <stop offset="0.625" stop-color="#A24F09"/>
            <stop offset="0.628906" stop-color="#A14F09"/>
            <stop offset="0.632812" stop-color="#A14E09"/>
            <stop offset="0.636719" stop-color="#A04E08"/>
            <stop offset="0.640625" stop-color="#A04E08"/>
            <stop offset="0.644531" stop-color="#9F4D08"/>
            <stop offset="0.648438" stop-color="#9E4D08"/>
            <stop offset="0.652344" stop-color="#9E4C08"/>
            <stop offset="0.65625" stop-color="#9D4C08"/>
            <stop offset="0.660156" stop-color="#9D4C08"/>
            <stop offset="0.664062" stop-color="#9C4B08"/>
            <stop offset="0.667969" stop-color="#9C4B07"/>
            <stop offset="0.671875" stop-color="#9B4B07"/>
            <stop offset="0.675781" stop-color="#9B4A07"/>
            <stop offset="0.679688" stop-color="#9A4A07"/>
            <stop offset="0.683594" stop-color="#9A4907"/>
            <stop offset="0.6875" stop-color="#994907"/>
            <stop offset="0.691406" stop-color="#994907"/>
            <stop offset="0.695312" stop-color="#984807"/>
            <stop offset="0.699219" stop-color="#974806"/>
            <stop offset="0.703125" stop-color="#974706"/>
            <stop offset="0.707031" stop-color="#964706"/>
            <stop offset="0.710938" stop-color="#964706"/>
            <stop offset="0.714844" stop-color="#954606"/>
            <stop offset="0.71875" stop-color="#954606"/>
            <stop offset="0.722656" stop-color="#944606"/>
            <stop offset="0.726562" stop-color="#944505"/>
            <stop offset="0.730469" stop-color="#934505"/>
            <stop offset="0.734375" stop-color="#924405"/>
            <stop offset="1" stop-color="#924405"/>
        </radialGradient>
    </defs>
</svg>
